<?xml version="1.0" encoding="UTF-8"?><svg id="Camada_2" xmlns="http://www.w3.org/2000/svg" viewBox="0 0 227.88 380.47"><defs><style>.cls-1{fill:#161614;}.cls-2{fill:#090909;}.cls-3{fill:#f5f4f5;}</style></defs><g id="Camada_8"><path class="cls-1" d="M227.88,297.08c0,3.74-.21,7.39-.62,11-1.25,12.04-4.61,23.49-9.67,33.91-1.29,2.61-2.66,5.15-4.15,7.6-7.22,12.16-16.85,22.66-28.27,30.88v-32.25c0-2.12-.08-4.19-.29-6.23-.91-11.25-4.4-21.75-9.88-30.92,.33-1,.71-1.99,1-2.99,.95-2.86,1.91-5.81,2.74-8.76,.71-2.28,1.37-4.61,1.99-6.93,.17-.66,.37-1.33,.5-1.99,.46-1.58,.87-3.2,1.2-4.81,.33-1.29,.66-2.57,.95-3.86,.04-.13,.04-.25,.08-.37,.54-2.37,1.08-4.77,1.58-7.18,1.99-9.55,3.61-19.43,4.81-29.64,1-8.3,1.74-16.73,2.2-25.36,16.4,14.03,28.31,33.21,33.25,55,.91,4.03,1.62,8.14,2.03,12.33v.08c.37,3.45,.54,6.97,.54,10.5Z"/><path class="cls-1" d="M50.81,311.15c-5.6,9.3-9.21,19.93-10.13,31.34v36.9c-10.54-7.89-19.47-17.89-26.27-29.31-1.45-2.45-2.82-4.98-4.11-7.6-5.06-10.42-8.43-21.87-9.67-33.91-.42-3.61-.62-7.26-.62-11,0-1.66,.04-3.32,.12-4.94v-.04c.29-6.14,1.12-12.16,2.45-17.93,4.77-21,16.02-39.6,31.46-53.5,.46,9.09,1.29,17.97,2.41,26.65,1.16,9.21,2.66,18.18,4.48,26.86,.5,2.41,1.04,4.81,1.58,7.18,2.12,9.3,4.61,18.22,7.47,26.73,.25,.87,.54,1.74,.83,2.57Z"/><path class="cls-2" d="M173.75,78.78H52.09c4.57-12.45,9.88-23.83,15.73-33.91C80.53,23.16,95.93,7.43,112.94,0c17.02,7.47,32.33,23.16,45.04,44.87,5.89,10.09,11.17,21.46,15.77,33.91Z"/><path class="cls-2" d="M171.48,320.57c-2.78,7.02-5.8,13.65-9.07,19.84H63.37c-3.21-6.21-6.22-12.83-9-19.84h117.11Z"/><path class="cls-2" d="M185.88,122.08c-2.45-11.92-5.36-23.25-8.93-33.92H48.82c-3.49,10.67-6.52,22-8.88,33.92-4.7,23.07-7.27,48.27-7.27,74.63,0,7.55,.21,15.02,.67,22.37,.41,9.09,1.28,17.97,2.4,26.65,1.12,9.22,2.66,18.18,4.44,26.86,.54,2.61,1.13,5.23,1.71,7.8,.58,2.41,1.16,4.77,1.78,7.14,.46,1.74,.91,3.49,1.41,5.19,.38,1.41,.75,2.82,1.21,4.19,.45,1.66,.95,3.28,1.49,4.9,.46,1.58,.96,3.15,1.49,4.69,.25,.87,.54,1.74,.79,2.57,.25,.71,.5,1.41,.75,2.12h124.19c.17-.54,.38-1.12,.58-1.7,.3-1,.71-2,1-2.99,.5-1.54,1.04-3.11,1.5-4.69,.08-.21,.16-.46,.2-.67,.58-1.82,1.12-3.69,1.66-5.56,.21-.62,.38-1.2,.54-1.82,.58-2.04,1.12-4.15,1.66-6.23,.63-2.37,1.21-4.73,1.79-7.14,.58-2.57,1.16-5.19,1.7-7.8,1.95-9.55,3.61-19.43,4.77-29.64,1.04-8.3,1.79-16.73,2.24-25.36v-.04c.38-6.85,.54-13.83,.54-20.84,0-26.36-2.57-51.56-7.3-74.63Zm-88.41,0c4.65-2.08,9.83-3.24,15.27-3.24s10.59,1.16,15.19,3.24c13.12,5.85,22.25,18.97,22.25,34.2,0,17.81-12.45,32.71-29.05,36.57h-.05c-1.78,.37-3.61,.66-5.52,.79-.91,.08-1.91,.12-2.82,.12-.41,0-.79,0-1.2-.04h-.04c-2.54-.04-5.03-.37-7.43-.95-16.52-3.91-28.85-18.77-28.85-36.49,0-15.23,9.13-28.35,22.25-34.2Z"/><path class="cls-3" d="M112.72,121.84c4.87,0,9.59,1,14.01,2.98,12.41,5.56,20.43,17.91,20.43,31.46,0,7.96-2.63,15.44-7.62,21.63-4.75,5.91-11.38,10.13-18.69,11.92l-1.05,.02-.24,.24c-1.53,.29-2.89,.47-4.23,.56h-.04s-.04,0-.04,0c-.82,.07-1.68,.11-2.55,.11-.19,0-.4,0-.58,0-.25-.05-.46-.07-.62-.07-.1,0-.23,0-.37,.02-2.14-.06-4.28-.35-6.38-.87-15.62-3.68-26.54-17.48-26.54-33.57,0-13.56,8.02-25.91,20.43-31.46,4.42-1.98,9.15-2.98,14.05-2.98m0-3c-5.44,0-10.63,1.16-15.28,3.24-13.08,5.85-22.21,18.97-22.21,34.2,0,17.72,12.29,32.58,28.85,36.49,2.37,.58,4.86,.91,7.39,.95,.02-.02,.03-.03,.04-.03s.02,.01,.04,.03c.37,.04,.79,.04,1.16,.04,.95,0,1.91-.04,2.82-.12,1.91-.12,3.74-.42,5.52-.79,0,0,.02-.02,.04-.02,.01,0,.03,0,.04,.02,16.6-3.86,29.01-18.76,29.01-36.57,0-15.23-9.13-28.35-22.21-34.2-4.65-2.08-9.8-3.24-15.23-3.24h0Z"/><rect class="cls-3" x="109.06" y="207.56" width="7.72" height="33.86"/><rect class="cls-3" x="108.83" y="255.21" width="7.72" height="12.27"/></g></svg>