<?xml version="1.0" encoding="UTF-8"?><svg id="Camada_2" xmlns="http://www.w3.org/2000/svg" viewBox="0 0 227.88 152.97"><defs><style>.cls-1{fill:#f7f1a2;}</style></defs><g id="Logo"><g><rect class="cls-1" x="83.11" y="0" width="61.66" height="20.48"/><path class="cls-1" d="M227.88,90.9c0,34.29-27.8,62.07-62.1,62.07-21.66,0-40.74-11.08-51.82-27.9v-.02c-1.1-1.63-2.13-3.33-3.06-5.06l-1.23-2.48c-3.84-8.07-5.97-17.1-5.97-26.6,0-18.58-12.18-34.32-28.98-39.66-3.99-1.28-8.25-1.96-12.64-1.96-3.61,0-7.12,.45-10.48,1.33-8.9,2.31-16.62,7.47-22.14,14.47-5.64,7.09-9,16.07-9,25.82,0,.83,.02,1.65,.07,2.48,.68,11.48,6.02,21.71,14.14,28.8,.68,.6,1.35,1.15,2.06,1.71,7.02,5.39,15.82,8.6,25.34,8.6,10.38,0,19.88-3.81,27.18-10.1l9.23,18.8c-10.23,7.42-22.81,11.78-36.4,11.78C27.8,152.97,0,125.2,0,90.9S27.8,28.81,62.1,28.81c13.49,0,25.97,4.31,36.18,11.63,6.17,4.41,11.48,9.93,15.69,16.3v.02c1.43,2.16,2.73,4.41,3.86,6.74l.35,.7c3.86,8.1,6.02,17.15,6.02,26.7,0,.85,.03,1.7,.08,2.53,.7,11.46,6.02,21.66,14.11,28.73,.68,.6,1.38,1.18,2.08,1.7,7.02,5.42,15.79,8.62,25.32,8.62,22.99,0,41.62-18.63,41.62-41.59,0-18.58-12.18-34.32-28.98-39.66-3.99-1.28-8.25-1.96-12.64-1.96-3.61,0-7.12,.45-10.48,1.33-6.24,1.63-11.93,4.66-16.67,8.8l-9.25-18.83c10.23-7.42,22.79-11.78,36.4-11.78,34.29,0,62.1,27.8,62.1,62.1Z"/><path class="cls-1" d="M61.29,70.37c-10.6,.4-19.13,8.8-19.73,19.35l-6.54-13.36c4.34-8.07,12.18-13.99,21.51-15.69l4.76,9.7Z"/><path class="cls-1" d="M165.01,70.37c-10.6,.38-19.15,8.8-19.75,19.35l-5.16-10.55-1.38-2.78c1.33-2.48,3.01-4.76,4.94-6.77,4.36-4.56,10.13-7.77,16.6-8.95l4.76,9.7Z"/></g></g></svg>