<?xml version="1.0" encoding="UTF-8"?><svg id="Camada_2" xmlns="http://www.w3.org/2000/svg" viewBox="0 0 228.88 160.29"><defs><style>.cls-1{fill:none;stroke:#000;stroke-miterlimit:10;}</style></defs><g id="Camada_8"><g><circle class="cls-1" cx="166.29" cy="91.4" r="62.09"/><circle class="cls-1" cx="62.59" cy="91.4" r="62.09"/><circle class="cls-1" cx="62.59" cy="91.4" r="41.61"/><circle class="cls-1" cx="166.29" cy="91.4" r="41.61"/><rect class="cls-1" x="93.16" y="96.59" width="20.48" height="61.66" transform="translate(-45.57 58.61) rotate(-26.15)"/><rect class="cls-1" x="114.21" y="22.4" width="20.48" height="61.66" transform="translate(-10.72 60.29) rotate(-26.15)"/><circle class="cls-1" cx="62.59" cy="91.4" r="30.73"/><circle class="cls-1" cx="62.59" cy="91.4" r="20.56"/><rect class="cls-1" x="58.9" y="31.76" width="20.48" height="61.66" transform="translate(-20.51 36.87) rotate(-26.15)"/><rect class="cls-1" x="21.62" y="61.84" width="20.48" height="61.66" transform="translate(-37.58 23.53) rotate(-26.15)"/><circle class="cls-1" cx="166.29" cy="91.4" r="30.73"/><circle class="cls-1" cx="166.29" cy="91.4" r="20.56"/><rect class="cls-1" x="162.6" y="31.76" width="20.48" height="61.66" transform="translate(-9.9 82.57) rotate(-26.15)"/><rect class="cls-1" x="114.88" y="16.86" width="20.48" height="109.08" transform="translate(-18.66 62.44) rotate(-26.15)"/><rect class="cls-1" x="103.74" y="-20.09" width="20.48" height="61.66" transform="translate(103.24 124.72) rotate(-90)"/></g></g></svg>