<?xml version="1.0" encoding="UTF-8"?><svg id="Camada_2" xmlns="http://www.w3.org/2000/svg" viewBox="0 0 653.45 181.41"><defs><style>.cls-1{fill:#0f0d0d;}</style></defs><path class="cls-1" d="M59.02,71.82c26.11,0,47.35,21.24,47.35,47.35s-21.24,47.35-47.35,47.35S11.67,145.28,11.67,119.17s21.24-47.35,47.35-47.35m0-1c-26.7,0-48.35,21.65-48.35,48.35s21.65,48.35,48.35,48.35,48.35-21.65,48.35-48.35-21.65-48.35-48.35-48.35h0Z"/><path class="cls-1" d="M171.02,71.82c26.11,0,47.35,21.24,47.35,47.35s-21.24,47.35-47.35,47.35-47.35-21.24-47.35-47.35,21.24-47.35,47.35-47.35m0-1c-26.7,0-48.35,21.65-48.35,48.35s21.65,48.35,48.35,48.35,48.35-21.65,48.35-48.35-21.65-48.35-48.35-48.35h0Z"/><path class="cls-1" d="M276.37,71.82c26.11,0,47.35,21.24,47.35,47.35s-21.24,47.35-47.35,47.35-47.35-21.24-47.35-47.35,21.24-47.35,47.35-47.35m0-1c-26.7,0-48.35,21.65-48.35,48.35s21.65,48.35,48.35,48.35,48.35-21.65,48.35-48.35-21.65-48.35-48.35-48.35h0Z"/><path class="cls-1" d="M493.16,71.82c26.11,0,47.35,21.24,47.35,47.35s-21.24,47.35-47.35,47.35-47.35-21.24-47.35-47.35,21.24-47.35,47.35-47.35m0-1c-26.7,0-48.35,21.65-48.35,48.35s21.65,48.35,48.35,48.35,48.35-21.65,48.35-48.35-21.65-48.35-48.35-48.35h0Z"/><path class="cls-1" d="M387.93,1.74c26.11,0,47.35,21.24,47.35,47.35s-21.24,47.35-47.35,47.35-47.35-21.24-47.35-47.35S361.83,1.74,387.93,1.74m0-1c-26.7,0-48.35,21.65-48.35,48.35s21.65,48.35,48.35,48.35,48.35-21.65,48.35-48.35S414.64,.74,387.93,.74h0Z"/><path class="cls-1" d="M605.05,71.82c26.11,0,47.35,21.24,47.35,47.35s-21.24,47.35-47.35,47.35-47.35-21.24-47.35-47.35,21.24-47.35,47.35-47.35m0-1c-26.7,0-48.35,21.65-48.35,48.35s21.65,48.35,48.35,48.35,48.35-21.65,48.35-48.35-21.65-48.35-48.35-48.35h0Z"/><path class="cls-1" d="M19.47,1.74c4.3,0,7.8,3.5,7.8,7.8s-3.5,7.8-7.8,7.8-7.8-3.5-7.8-7.8S15.17,1.74,19.47,1.74m0-1c-4.86,0-8.8,3.94-8.8,8.8s3.94,8.8,8.8,8.8,8.8-3.94,8.8-8.8S24.33,.74,19.47,.74h0Z"/><path class="cls-1" d="M12.49,161.17c4.3,0,7.8,3.5,7.8,7.8s-3.5,7.8-7.8,7.8-7.8-3.5-7.8-7.8,3.5-7.8,7.8-7.8m0-1c-4.86,0-8.8,3.94-8.8,8.8s3.94,8.8,8.8,8.8,8.8-3.94,8.8-8.8-3.94-8.8-8.8-8.8h0Z"/><path class="cls-1" d="M131.47,151.03c4.3,0,7.8,3.5,7.8,7.8s-3.5,7.8-7.8,7.8-7.8-3.5-7.8-7.8,3.5-7.8,7.8-7.8m0-1c-4.86,0-8.8,3.94-8.8,8.8s3.94,8.8,8.8,8.8,8.8-3.94,8.8-8.8-3.94-8.8-8.8-8.8h0Z"/><path class="cls-1" d="M27.22,1.74V166.63H11.67V1.74h15.55m1-1H10.67V167.63H28.22V.74h0Z"/><path class="cls-1" d="M203.89,151.03c4.3,0,7.8,3.5,7.8,7.8s-3.5,7.8-7.8,7.8-7.8-3.5-7.8-7.8,3.5-7.8,7.8-7.8m0-1c-4.86,0-8.8,3.94-8.8,8.8s3.94,8.8,8.8,8.8,8.8-3.94,8.8-8.8-3.94-8.8-8.8-8.8h0Z"/><path class="cls-1" d="M203.89,71.82c4.3,0,7.8,3.5,7.8,7.8s-3.5,7.8-7.8,7.8-7.8-3.5-7.8-7.8,3.5-7.8,7.8-7.8m0-1c-4.86,0-8.8,3.94-8.8,8.8s3.94,8.8,8.8,8.8,8.8-3.94,8.8-8.8-3.94-8.8-8.8-8.8h0Z"/><path class="cls-1" d="M171.02,71.83c4.3,0,7.8,3.5,7.8,7.8s-3.5,7.8-7.8,7.8-7.8-3.5-7.8-7.8,3.5-7.8,7.8-7.8m0-1c-4.86,0-8.8,3.94-8.8,8.8s3.94,8.8,8.8,8.8,8.8-3.94,8.8-8.8-3.94-8.8-8.8-8.8h0Z"/><path class="cls-1" d="M532.76,151.03c4.3,0,7.8,3.5,7.8,7.8s-3.5,7.8-7.8,7.8-7.8-3.5-7.8-7.8,3.5-7.8,7.8-7.8m0-1c-4.86,0-8.8,3.94-8.8,8.8s3.94,8.8,8.8,8.8,8.8-3.94,8.8-8.8-3.94-8.8-8.8-8.8h0Z"/><path class="cls-1" d="M453.56,151.03c4.3,0,7.8,3.5,7.8,7.8s-3.5,7.8-7.8,7.8-7.8-3.5-7.8-7.8,3.5-7.8,7.8-7.8m0-1c-4.86,0-8.8,3.94-8.8,8.8s3.94,8.8,8.8,8.8,8.8-3.94,8.8-8.8-3.94-8.8-8.8-8.8h0Z"/><path class="cls-1" d="M387.93,1.42c4.3,0,7.8,3.5,7.8,7.8s-3.5,7.8-7.8,7.8-7.8-3.5-7.8-7.8,3.5-7.8,7.8-7.8m0-1c-4.86,0-8.8,3.94-8.8,8.8s3.94,8.8,8.8,8.8,8.8-3.94,8.8-8.8-3.94-8.8-8.8-8.8h0Z"/><path class="cls-1" d="M340.91,71.82c4.3,0,7.8,3.5,7.8,7.8s-3.5,7.8-7.8,7.8-7.8-3.5-7.8-7.8,3.5-7.8,7.8-7.8m0-1c-4.86,0-8.8,3.94-8.8,8.8s3.94,8.8,8.8,8.8,8.8-3.94,8.8-8.8-3.94-8.8-8.8-8.8h0Z"/><path class="cls-1" d="M371.54,71.83c4.3,0,7.8,3.5,7.8,7.8s-3.5,7.8-7.8,7.8-7.8-3.5-7.8-7.8,3.5-7.8,7.8-7.8m0-1c-4.86,0-8.8,3.94-8.8,8.8s3.94,8.8,8.8,8.8,8.8-3.94,8.8-8.8-3.94-8.8-8.8-8.8h0Z"/><path class="cls-1" d="M420.62,16.51c4.3,0,7.8,3.5,7.8,7.8s-3.5,7.8-7.8,7.8-7.8-3.5-7.8-7.8,3.5-7.8,7.8-7.8m0-1c-4.86,0-8.8,3.94-8.8,8.8s3.94,8.8,8.8,8.8,8.8-3.94,8.8-8.8-3.94-8.8-8.8-8.8h0Z"/><path class="cls-1" d="M420.62,71.82c4.3,0,7.8,3.5,7.8,7.8s-3.5,7.8-7.8,7.8-7.8-3.5-7.8-7.8,3.5-7.8,7.8-7.8m0-1c-4.86,0-8.8,3.94-8.8,8.8s3.94,8.8,8.8,8.8,8.8-3.94,8.8-8.8-3.94-8.8-8.8-8.8h0Z"/><path class="cls-1" d="M420.62,151.03c4.3,0,7.8,3.5,7.8,7.8s-3.5,7.8-7.8,7.8-7.8-3.5-7.8-7.8,3.5-7.8,7.8-7.8m0-1c-4.86,0-8.8,3.94-8.8,8.8s3.94,8.8,8.8,8.8,8.8-3.94,8.8-8.8-3.94-8.8-8.8-8.8h0Z"/><path class="cls-1" d="M203.89,16.51c4.3,0,7.8,3.5,7.8,7.8s-3.5,7.8-7.8,7.8-7.8-3.5-7.8-7.8,3.5-7.8,7.8-7.8m0-1c-4.86,0-8.8,3.94-8.8,8.8s3.94,8.8,8.8,8.8,8.8-3.94,8.8-8.8-3.94-8.8-8.8-8.8h0Z"/><path class="cls-1" d="M348.08,151.03c4.3,0,7.8,3.5,7.8,7.8s-3.5,7.8-7.8,7.8-7.8-3.5-7.8-7.8,3.5-7.8,7.8-7.8m0-1c-4.86,0-8.8,3.94-8.8,8.8s3.94,8.8,8.8,8.8,8.8-3.94,8.8-8.8-3.94-8.8-8.8-8.8h0Z"/><path class="cls-1" d="M131.47,71.82c4.3,0,7.8,3.5,7.8,7.8s-3.5,7.8-7.8,7.8-7.8-3.5-7.8-7.8,3.5-7.8,7.8-7.8m0-1c-4.86,0-8.8,3.94-8.8,8.8s3.94,8.8,8.8,8.8,8.8-3.94,8.8-8.8-3.94-8.8-8.8-8.8h0Z"/><path class="cls-1" d="M308.11,135.76c4.3,0,7.8,3.5,7.8,7.8s-3.5,7.8-7.8,7.8-7.8-3.5-7.8-7.8,3.5-7.8,7.8-7.8m0-1c-4.86,0-8.8,3.94-8.8,8.8s3.94,8.8,8.8,8.8,8.8-3.94,8.8-8.8-3.94-8.8-8.8-8.8h0Z"/><path class="cls-1" d="M308.11,87.08c4.3,0,7.8,3.5,7.8,7.8s-3.5,7.8-7.8,7.8-7.8-3.5-7.8-7.8,3.5-7.8,7.8-7.8m0-1c-4.86,0-8.8,3.94-8.8,8.8s3.94,8.8,8.8,8.8,8.8-3.94,8.8-8.8-3.94-8.8-8.8-8.8h0Z"/><path class="cls-1" d="M644.65,1.42c4.3,0,7.8,3.5,7.8,7.8s-3.5,7.8-7.8,7.8-7.8-3.5-7.8-7.8,3.5-7.8,7.8-7.8m0-1c-4.86,0-8.8,3.94-8.8,8.8s3.94,8.8,8.8,8.8,8.8-3.94,8.8-8.8-3.94-8.8-8.8-8.8h0Z"/><path class="cls-1" d="M453.56,71.82c4.3,0,7.8,3.5,7.8,7.8s-3.5,7.8-7.8,7.8-7.8-3.5-7.8-7.8,3.5-7.8,7.8-7.8m0-1c-4.86,0-8.8,3.94-8.8,8.8s3.94,8.8,8.8,8.8,8.8-3.94,8.8-8.8-3.94-8.8-8.8-8.8h0Z"/><path class="cls-1" d="M211.69,71.82v94.6h-15.6V71.82h15.6m1-1h-17.6v96.6h17.6V70.82h0Z"/><path class="cls-1" d="M139.27,71.82v94.6h-15.6V71.82h15.6m1-1h-17.6v96.6h17.6V70.82h0Z"/><path class="cls-1" d="M428.24,71.82v94.6h-15.6V71.82h15.6m1-1h-17.6v96.6h17.6V70.82h0Z"/><path class="cls-1" d="M461.36,71.82v94.6h-15.6V71.82h15.6m1-1h-17.6v96.6h17.6V70.82h0Z"/><path class="cls-1" d="M540.56,71.82v94.6h-15.6V71.82h15.6m1-1h-17.6v96.6h17.6V70.82h0Z"/><path class="cls-1" d="M308.52,83.94l11.03,11.03-66.89,66.89-11.03-11.03,66.89-66.89m0-1.41l-68.31,68.31,12.45,12.45,68.31-68.31-12.45-12.45h0Z"/><path class="cls-1" d="M18.36,152.02l11.03,11.03-16.95,16.95-11.03-11.03,16.95-16.95m0-1.41L0,168.97l12.45,12.45,18.36-18.36-12.45-12.45h0Z"/><path class="cls-1" d="M379.41,71.83v15.6h-46.21v-15.6h46.21m1-1h-48.21v17.6h48.21v-17.6h0Z"/><path class="cls-1" d="M652.45,1.42V166.42h-15.6V1.42h15.6m1-1h-17.6V167.42h17.6V.42h0Z"/><path class="cls-1" d="M355.88,1.42V166.42h-15.6V1.42h15.6m1-1h-17.6V167.42h17.6V.42h0Z"/><path class="cls-1" d="M276.37,89.42c16.4,0,29.75,13.35,29.75,29.75s-13.35,29.75-29.75,29.75-29.75-13.35-29.75-29.75,13.35-29.75,29.75-29.75m0-1c-16.98,0-30.75,13.77-30.75,30.75s13.77,30.75,30.75,30.75,30.75-13.77,30.75-30.75-13.77-30.75-30.75-30.75h0Z"/><path class="cls-1" d="M493.16,89.42c16.4,0,29.75,13.35,29.75,29.75s-13.35,29.75-29.75,29.75-29.75-13.35-29.75-29.75,13.35-29.75,29.75-29.75m0-1c-16.98,0-30.75,13.77-30.75,30.75s13.77,30.75,30.75,30.75,30.75-13.77,30.75-30.75-13.77-30.75-30.75-30.75h0Z"/><path class="cls-1" d="M388.06,19.34c16.4,0,29.75,13.35,29.75,29.75s-13.35,29.75-29.75,29.75-29.75-13.35-29.75-29.75,13.35-29.75,29.75-29.75m0-1c-16.98,0-30.75,13.77-30.75,30.75s13.77,30.75,30.75,30.75,30.75-13.77,30.75-30.75-13.77-30.75-30.75-30.75h0Z"/><path class="cls-1" d="M605.05,89.42c16.4,0,29.75,13.35,29.75,29.75s-13.35,29.75-29.75,29.75-29.75-13.35-29.75-29.75,13.35-29.75,29.75-29.75m0-1c-16.98,0-30.75,13.77-30.75,30.75s13.77,30.75,30.75,30.75,30.75-13.77,30.75-30.75-13.77-30.75-30.75-30.75h0Z"/><path class="cls-1" d="M171.02,89.48c16.4,0,29.75,13.35,29.75,29.75s-13.35,29.75-29.75,29.75-29.75-13.35-29.75-29.75,13.35-29.75,29.75-29.75m0-1c-16.98,0-30.75,13.77-30.75,30.75s13.77,30.75,30.75,30.75,30.75-13.77,30.75-30.75-13.77-30.75-30.75-30.75h0Z"/><path class="cls-1" d="M59.02,89.48c16.4,0,29.75,13.35,29.75,29.75s-13.35,29.75-29.75,29.75-29.75-13.35-29.75-29.75,13.35-29.75,29.75-29.75m0-1c-16.98,0-30.75,13.77-30.75,30.75s13.77,30.75,30.75,30.75,30.75-13.77,30.75-30.75-13.77-30.75-30.75-30.75h0Z"/><path class="cls-1" d="M59.02,85.13c18.8,0,34.09,15.29,34.09,34.09s-15.29,34.09-34.09,34.09-34.09-15.29-34.09-34.09,15.29-34.09,34.09-34.09m0-1c-19.38,0-35.09,15.71-35.09,35.09s15.71,35.09,35.09,35.09,35.09-15.71,35.09-35.09-15.71-35.09-35.09-35.09h0Z"/><path class="cls-1" d="M59.02,93.91c13.96,0,25.32,11.36,25.32,25.32s-11.36,25.32-25.32,25.32-25.32-11.36-25.32-25.32,11.36-25.32,25.32-25.32m0-1c-14.54,0-26.32,11.78-26.32,26.32s11.78,26.32,26.32,26.32,26.32-11.78,26.32-26.32-11.78-26.32-26.32-26.32h0Z"/><path class="cls-1" d="M54.45,104.18c4.32,0,7.83,3.51,7.83,7.83s-3.51,7.83-7.83,7.83-7.83-3.51-7.83-7.83,3.51-7.83,7.83-7.83m0-1c-4.88,0-8.83,3.96-8.83,8.83s3.96,8.83,8.83,8.83,8.83-3.96,8.83-8.83-3.96-8.83-8.83-8.83h0Z"/><path class="cls-1" d="M54.32,101.17c5.87,0,10.65,4.78,10.65,10.65s-4.78,10.65-10.65,10.65-10.65-4.78-10.65-10.65,4.78-10.65,10.65-10.65m0-1c-6.43,0-11.65,5.21-11.65,11.65s5.21,11.65,11.65,11.65,11.65-5.21,11.65-11.65-5.21-11.65-11.65-11.65h0Z"/><path class="cls-1" d="M44.55,108.56c.26,0,.48,.22,.48,.48s-.22,.48-.48,.48-.48-.22-.48-.48,.22-.48,.48-.48m0-1c-.82,0-1.48,.66-1.48,1.48s.66,1.48,1.48,1.48,1.48-.66,1.48-1.48-.66-1.48-1.48-1.48h0Z"/><path class="cls-1" d="M18.19,153.36c1.36,0,2.47,1.11,2.47,2.47s-1.11,2.47-2.47,2.47-2.47-1.11-2.47-2.47,1.11-2.47,2.47-2.47m0-1c-1.91,0-3.47,1.55-3.47,3.47s1.55,3.47,3.47,3.47,3.47-1.55,3.47-3.47-1.55-3.47-3.47-3.47h0Z"/><path class="cls-1" d="M25.96,160.54c1.36,0,2.47,1.11,2.47,2.47s-1.11,2.47-2.47,2.47-2.47-1.11-2.47-2.47,1.11-2.47,2.47-2.47m0-1c-1.91,0-3.47,1.55-3.47,3.47s1.55,3.47,3.47,3.47,3.47-1.55,3.47-3.47-1.55-3.47-3.47-3.47h0Z"/><path class="cls-1" d="M59.18,102.28c.26,0,.48,.22,.48,.48s-.22,.48-.48,.48-.48-.22-.48-.48,.22-.48,.48-.48m0-1c-.82,0-1.48,.66-1.48,1.48s.66,1.48,1.48,1.48,1.48-.66,1.48-1.48-.66-1.48-1.48-1.48h0Z"/><path class="cls-1" d="M463.45,79.47c.06,0,.12,.05,.12,.12s-.05,.12-.12,.12-.12-.05-.12-.12,.05-.12,.12-.12m0-1c-.62,0-1.12,.5-1.12,1.12s.5,1.12,1.12,1.12,1.12-.5,1.12-1.12-.5-1.12-1.12-1.12h0Z"/><path class="cls-1" d="M634.64,79.24c.09,0,.16,.07,.16,.16s-.07,.16-.16,.16-.16-.07-.16-.16,.07-.16,.16-.16m0-1c-.64,0-1.16,.52-1.16,1.16s.52,1.16,1.16,1.16,1.16-.52,1.16-1.16-.52-1.16-1.16-1.16h0Z"/></svg>