<?xml version="1.0" encoding="UTF-8"?><svg id="Camada_2" xmlns="http://www.w3.org/2000/svg" viewBox="0 0 166.74 252.62"><defs><style>.cls-1{fill:#161414;}</style></defs><g id="Camada_1-2"><g><path class="cls-1" d="M152.59,212.92c8.19-1.03,15.08,5.85,14.04,14.04-.7,5.58-5.21,10.08-10.79,10.79-8.19,1.03-15.07-5.85-14.04-14.04,.7-5.58,5.21-10.09,10.79-10.79Z"/><path class="cls-1" d="M78.95,206.66c-21.62,0-38.98-18.27-37.46-40.22,1.28-18.52,16.28-33.52,34.8-34.8,21.95-1.51,40.22,15.84,40.22,37.46h0c0,20.74-16.81,37.56-37.56,37.56h0Zm0-87.63c-28.3,0-51.12,23.48-50.04,52.03,.99,25.95,22.13,47.1,48.09,48.09,28.54,1.08,52.02-21.74,52.02-50.04h0c0-27.66-22.42-50.07-50.07-50.07h0Z"/><path class="cls-1" d="M81.2,146.42c-.44,1.09-1.68,1.62-2.77,1.18-.11-.04-.21-.1-.31-.16h-.02c-.27-.13-.56-.25-.85-.37-6.56-2.64-14.02,.55-16.66,7.11-.12,.29-.22,.58-.31,.87h-.01c-.02,.09-.05,.17-.08,.25-.44,1.09-1.68,1.62-2.77,1.18,0,0,0,0,0,0-.08-.03-.16-.07-.23-.11-.87-.47-1.3-1.48-1.03-2.43,0-.02,.01-.04,.01-.06,.4-1.29,.96-2.54,1.68-3.79,4.2-7.23,13.22-10.1,20.98-6.99h0c.4,.16,.79,.34,1.18,.53,.02,0,.03,.01,.05,.02,.08,.04,.16,.07,.23,.12,.8,.46,1.21,1.4,1.01,2.3-.03,.11-.06,.22-.1,.33Z"/><path class="cls-1" d="M78.43,212.82c-23.79-.2-43.23-19.64-43.43-43.43-.21-24.2,19.23-43.99,43.43-44.2,.25,0,.51,0,.76,0,23.79,.2,43.24,19.64,43.44,43.44,.21,24.2-19.24,43.98-43.44,44.19-.25,0-.51,0-.76,0Zm-1.71-112.63c-14.02,.41-27.59,5.11-38.85,13.47-.79,.59-1.91,.43-2.5-.36-.23-.31-.36-.68-.36-1.07V12.77C35,5.75,29.25-.13,22.23,0c-6.82,.13-12.27,5.7-12.27,12.52V169c0,38.02,30.82,68.85,68.84,68.85h.01c37.65,0,68.24-30.22,68.84-67.72,.63-39.3-31.66-71.13-70.94-69.95Z"/><path class="cls-1" d="M35.27,235.15l-13.61,13.61c-4.87,4.87-12.87,5.24-17.83,.46s-5.11-12.92-.17-17.87h0l13.53-13.53c2.04-2.04,5.38-1.93,7.29,.24,3.1,3.51,6.53,6.71,10.25,9.55,2.42,1.84,2.69,5.38,.54,7.53Z"/></g></g></svg>