<?xml version="1.0" standalone="no"?>
<!DOCTYPE svg PUBLIC "-//W3C//DTD SVG 20010904//EN"
 "http://www.w3.org/TR/2001/REC-SVG-20010904/DTD/svg10.dtd">
<svg version="1.0" xmlns="http://www.w3.org/2000/svg"
 width="512.000000pt" height="512.000000pt" viewBox="0 0 512.000000 512.000000"
 preserveAspectRatio="xMidYMid meet">

<g transform="translate(0.000000,512.000000) scale(0.100000,-0.100000)"
fill="#000000" stroke="none">
<path d="M1900 5104 c-127 -34 -260 -126 -320 -222 l-25 -40 -485 -4 c-543 -5
-537 -5 -690 -80 -120 -58 -238 -177 -298 -298 -77 -158 -72 -3 -72 -2041 0
-1771 1 -1828 19 -1901 52 -203 187 -366 376 -454 127 -59 178 -64 625 -64
238 0 409 4 419 10 10 5 24 22 30 39 10 24 10 34 -3 59 -8 16 -23 32 -31 36
-9 3 -194 6 -411 6 -322 0 -407 3 -462 16 -194 45 -346 192 -397 385 -23 84
-22 2698 0 2784 48 181 199 332 380 380 50 13 161 15 736 15 648 0 680 -1 740
-20 75 -23 147 -63 207 -115 27 -24 112 -141 227 -315 195 -295 231 -337 356
-412 35 -21 100 -51 144 -66 l80 -27 750 -5 c696 -5 754 -6 800 -24 177 -65
305 -202 349 -373 15 -56 16 -160 14 -935 l-3 -873 -22 -60 c-47 -122 -141
-231 -254 -290 -130 -68 -45 -65 -1590 -65 l-1396 0 -27 -21 c-36 -28 -36 -80
0 -108 l27 -21 1399 0 c1548 0 1479 -3 1623 64 147 69 253 173 325 320 76 152
71 7 68 2066 l-3 1845 -23 65 c-75 209 -251 385 -439 441 -33 9 -48 21 -67 53
-61 104 -162 188 -282 234 l-69 27 -1135 2 c-969 2 -1143 0 -1190 -13z m2372
-171 c85 -40 151 -106 191 -191 31 -65 32 -72 37 -233 4 -146 7 -170 24 -188
25 -28 73 -27 103 1 22 21 23 28 23 170 l0 149 42 -23 c67 -37 172 -146 207
-215 63 -125 61 -101 61 -953 l0 -775 -67 63 c-46 43 -94 76 -154 105 l-88 42
0 613 c-1 598 -1 612 -21 632 -30 30 -83 27 -109 -6 -21 -26 -21 -35 -21 -615
l0 -589 -294 0 -295 0 -3 523 c-4 507 -4 524 -26 588 -44 133 -153 259 -275
319 -123 60 -116 60 -1085 60 l-884 0 4 138 c3 126 5 142 31 193 53 108 154
192 263 218 23 5 502 9 1154 8 l1115 -2 67 -32z m-2781 -247 c2 -2 3 -65 1
-140 l-3 -136 -128 0 c-218 0 -332 -41 -457 -165 -84 -83 -128 -165 -151 -282
l-16 -80 -96 -5 c-160 -8 -293 -66 -418 -182 l-63 -58 0 294 c0 323 4 358 61
471 42 83 144 182 229 223 63 30 136 51 210 57 52 5 826 8 831 3z m2031 -463
c123 -58 204 -161 228 -292 6 -31 10 -254 10 -532 l0 -479 -317 0 c-344 0
-406 7 -505 54 -120 57 -156 98 -353 396 -139 211 -197 289 -243 331 -76 68
-150 113 -244 147 l-73 27 -565 5 -565 5 3 40 c7 100 110 243 209 291 91 44
74 43 1238 41 l1110 -2 67 -32z"/>
<path d="M3438 3868 c-9 -7 -79 -131 -156 -276 l-140 -263 -87 108 c-109 134
-129 153 -164 153 -34 0 -71 -37 -71 -72 0 -28 22 -60 158 -228 127 -156 141
-170 177 -170 20 0 39 8 52 23 26 29 353 648 353 669 0 8 -9 27 -21 42 -23 29
-73 36 -101 14z"/>
<path d="M616 2439 c-33 -26 -36 -79 -6 -109 20 -20 33 -20 690 -20 657 0 670
0 690 20 30 30 27 83 -6 109 -26 21 -34 21 -684 21 -650 0 -658 0 -684 -21z"/>
<path d="M610 2160 c-30 -30 -27 -83 6 -109 26 -21 34 -21 684 -21 650 0 658
0 684 21 33 26 36 79 6 109 -20 20 -33 20 -690 20 -657 0 -670 0 -690 -20z"/>
</g>
</svg>
