<?xml version="1.0" encoding="UTF-8"?><svg id="Camada_2" xmlns="http://www.w3.org/2000/svg" viewBox="0 0 717.5 436.58"><defs><style>.cls-1{fill:#ba0909;}.cls-2{fill:#020202;}</style></defs><g id="Camada_5"><g><path class="cls-1" d="M298.89,335.06c-.87,1.04-1.77,2.06-2.71,3.07,.83-1.09,1.73-2.12,2.71-3.07Z"/><g><path d="M717.5,244.08c0,106.31-86.19,192.5-192.5,192.5-69.41,0-130.24-36.73-164.1-91.82-.74-1.19-1.45-2.38-2.15-3.59-10.45-17.84-18.1-37.52-22.37-58.43-2.54-12.49-3.88-25.42-3.88-38.66,0-77.32-62.68-140-140-140-35.74,0-68.35,13.39-93.09,35.43-28.78,25.64-46.91,62.99-46.91,104.57,0,16.04,2.7,31.45,7.67,45.79,5.87,16.98,14.92,32.48,26.44,45.79,25.67,29.66,63.59,48.42,105.89,48.42,32.48,0,62.37-11.06,86.13-29.62,6.3-4.93,12.17-10.38,17.53-16.3,.01-.01,.02-.02,.02-.03,.94-1.01,1.84-2.03,2.71-3.07,4.74-4.62,11.21-7.46,18.35-7.46,2.89,0,5.68,.47,8.28,1.33,10.47,3.47,18.02,13.34,18.02,24.97,0,1-.06,2-.17,2.97-.63,5.63-3.04,10.73-6.66,14.71-9.44,10.68-20.06,20.31-31.65,28.67-31.65,22.86-70.53,36.33-112.56,36.33-55.53,0-105.56-23.51-140.7-61.12-12.81-13.71-23.64-29.3-32.03-46.31C7.11,303.5,0,274.62,0,244.08c0-55.72,23.67-105.9,61.51-141.05,.01-.02,.02-.03,.04-.04,34.35-31.9,80.37-51.41,130.95-51.41,70.9,0,132.85,38.34,166.25,95.41,16.69,28.5,26.25,61.68,26.25,97.09,0,14.37,2.16,28.23,6.18,41.28,17.62,57.17,70.87,98.72,133.82,98.72,77.32,0,140-62.68,140-140s-62.68-140-140-140c-41.78,0-79.29,18.3-104.94,47.33-.83,.94-1.64,1.88-2.43,2.84-4.77,4.83-11.4,7.83-18.72,7.83-4.52,0-8.78-1.14-12.49-3.15-8.22-4.45-13.81-13.14-13.81-23.15,0-1.51,.13-2.98,.38-4.42,.76-4.54,2.69-8.68,5.48-12.11,.31-.39,.65-.78,.98-1.16,.01-.01,.03-.03,.05-.05,35.29-40.71,87.39-66.46,145.5-66.46,106.31,0,192.5,86.19,192.5,192.5Z"/><path class="cls-1" d="M420.06,151.41c-.74,1-1.56,1.95-2.43,2.84,.79-.96,1.6-1.9,2.43-2.84Z"/></g><path d="M446.32,25.78c0,14.24-11.54,25.78-25.78,25.78h-123.62c-14.22-.03-25.73-11.56-25.73-25.78S282.7,.03,296.92,0h123.62c14.24,0,25.78,11.54,25.78,25.78Z"/><path class="cls-2" d="M93.26,200.6c1.22,9.34,9.79,15.92,19.13,14.7,4.87-.64,8.99-3.26,11.64-6.96,.44-.76,.9-1.51,1.37-2.25,8.39-13.32,20.18-24.4,34.34-31.91,.75-.4,1.51-.79,2.28-1.16,5.6-3.4,8.97-9.88,8.06-16.8-1.22-9.34-9.79-15.93-19.13-14.7-1.98,.26-3.83,.85-5.51,1.71-.08,.03-.15,.07-.23,.11-20.59,10.57-37.64,26.62-49.49,45.99-.15,.24-.29,.47-.42,.71-1.74,3.1-2.54,6.77-2.04,10.57Z"/><path class="cls-2" d="M620.6,193.69c-1.22,9.34-9.79,15.92-19.13,14.7-4.87-.64-8.99-3.26-11.64-6.96-.44-.76-.9-1.51-1.37-2.25-8.39-13.32-20.18-24.4-34.34-31.91-.75-.4-1.51-.79-2.28-1.16-5.6-3.4-8.97-9.88-8.06-16.8,1.22-9.34,9.79-15.93,19.13-14.7,1.98,.26,3.83,.85,5.51,1.71,.08,.03,.15,.07,.23,.11,20.59,10.57,37.64,26.62,49.49,45.99,.15,.24,.29,.47,.42,.71,1.74,3.1,2.54,6.77,2.04,10.57Z"/></g></g></svg>